<?xml version="1.0" encoding="utf-8"?>
<svg version="1.1" xmlns:xlink="http://www.w3.org/1999/xlink" width="19px" height="20px" xmlns="http://www.w3.org/2000/svg">
  <g transform="matrix(1 0 0 1 -44 -214 )">
    <path d="M 19 18.81578947368421  L 17.838888888888892 19.973684210526315  L 10.898611111111112 13.052631578947366  C 10.370833333333334 13.508771929824562  9.755453240740742 13.864035087719298  9.052470833333334 14.118421052631579  C 8.349488425925928 14.372807017543858  7.601442592592595 14.5  6.8083333333333345 14.5  C 4.9054833333333345 14.5  3.295048611111112 13.842105263157896  1.977029166666667 12.526315789473683  C 0.659009722222223 11.210526315789473  0 9.622807017543858  0 7.763157894736842  C 0 5.903508771929822  0.6597222222222222 4.315789473684209  1.9791666666666667 2.999999999999998  C 3.298611111111112 1.6842105263157872  4.89513888888889 1.026315789473682  6.768749999999999 1.026315789473682  C 8.642361111111112 1.026315789473682  10.234490740740743 1.6842105263157872  11.545138888888888 2.999999999999998  C 12.85578703703704 4.315789473684209  13.511111111111111 5.904824561403505  13.511111111111111 7.767105263157893  C 13.511111111111111 8.518859649122808  13.387962962962964 9.245614035087717  13.14166666666667 9.94736842105263  C 12.895370370370372 10.649122807017541  12.525925925925929 11.307017543859647  12.033333333333333 11.921052631578945  L 19 18.81578947368421  Z M 3.099586111111112 11.407894736842103  C 4.11043888888889 12.416666666666664  5.337891666666668 12.921052631578947  6.781944444444446 12.921052631578947  C 8.211342592592594 12.921052631578947  9.42633101851852 12.416666666666664  10.426909722222224 11.407894736842103  C 11.427488425925928 10.399122807017543  11.927777777777777 9.18421052631579  11.927777777777777 7.763157894736842  C 11.927777777777777 6.342105263157894  11.427488425925928 5.127192982456137  10.426909722222224 4.118421052631577  C 9.42633101851852 3.1096491228070167  8.211342592592594 2.6052631578947345  6.781944444444446 2.6052631578947345  C 5.337891666666668 2.6052631578947345  4.11043888888889 3.1096491228070167  3.099586111111112 4.118421052631577  C 2.0887509259259263 5.127192982456137  1.5833333333333333 6.342105263157894  1.5833333333333333 7.763157894736842  C 1.5833333333333333 9.18421052631579  2.0887509259259263 10.399122807017543  3.099586111111112 11.407894736842103  Z " fill-rule="nonzero" fill="#d7d7d7" stroke="none" transform="matrix(1 0 0 1 44 214 )" />
  </g>
</svg>