<svg id="Layer_1" data-name="Layer 1" xmlns="http://www.w3.org/2000/svg" viewBox="0 0 145 148.96"><defs><style>.cls-1{fill:#f0efef;}.cls-2{fill:none;}.cls-3{fill:#cce9f7;}.cls-4{fill:#1d5f92;}</style></defs><ellipse class="cls-1" cx="66.97" cy="145.26" rx="55.11" ry="3.7"/><path class="cls-2" d="M106.7,38.77l8-7.22A58.24,58.24,0,1,0,125.6,45.3l-7.18,6.47Z" transform="translate(-8.81 -7.89)"/><path class="cls-3" d="M131.68,39.83,125.6,45.3a58.35,58.35,0,1,1-10.89-13.75l6-5.37a65.94,65.94,0,1,0,11,13.65Z" transform="translate(-8.81 -7.89)"/><path class="cls-4" d="M35,67S45.45,50.87,58.23,63a37.72,37.72,0,0,1,4.12,4.42s11.33,13.43,11.2,14.47c0,0,29.05-51.11,80.27-67.46,0,0-45.85,35.12-70.25,85.39l-3,6.13a8.48,8.48,0,0,1-7,4.62c-5.19.38-6,2.46-9.68.72,0,0-1.83-1-3.91-8.18S49.92,79.83,35,67Z" transform="translate(-8.81 -7.89)"/></svg>