<?xml version="1.0" encoding="utf-8"?>
<svg version="1.1" xmlns:xlink="http://www.w3.org/1999/xlink" width="18px" height="18px" xmlns="http://www.w3.org/2000/svg">
  <g transform="matrix(1 0 0 1 -268 -190 )">
    <path d="M 6.752083333333333 17.666666666666664  L 0.5229166666666671 17.666666666666664  L 0.5229166666666671 16.041666666666664  L 4.043750000000001 16.041666666666664  L 3.6375 15.716666666666669  C 2.481944444444445 14.795833333333334  1.6423611111111116 13.79375  1.1187500000000004 12.710416666666667  C 0.59513888888889 11.627083333333333  0.3333333333333339 10.417361111111113  0.3333333333333339 9.081249999999999  C 0.3333333333333339 7.167361111111109  0.8975694444444446 5.447569444444444  2.026041666666667 3.921875  C 3.1545138888888893 2.396180555555553  4.639583333333334 1.3444444444444414  6.481250000000001 0.7666666666666657  L 6.481250000000001 2.445833333333333  C 5.127083333333333 2.9694444444444414  4.034722222222223 3.8406249999999993  3.2041666666666666 5.059374999999999  C 2.373611111111112 6.278124999999999  1.958333333333334 7.61875  1.958333333333334 9.081249999999999  C 1.958333333333334 10.218749999999998  2.170486111111112 11.207291666666665  2.5947916666666666 12.046875  C 3.019097222222223 12.886458333333334  3.5923611111111127 13.613194444444446  4.314583333333333 14.227083333333333  L 5.127083333333333 14.795833333333334  L 5.127083333333333 11.4375  L 6.752083333333333 11.4375  L 6.752083333333333 17.666666666666664  Z M 15.9875 14.091666666666669  C 14.868055555555557 15.626388888888886  13.3875 16.68263888888889  11.545833333333334 17.260416666666664  L 11.545833333333334 15.554166666666667  C 12.918055555555558 15.030555555555555  14.010416666666668 14.159375  14.822916666666668 12.940624999999997  C 15.635416666666668 11.721875  16.041666666666668 10.381249999999998  16.041666666666668 8.91875  C 16.041666666666668 8.052083333333332  15.82951388888889 7.171875  15.405208333333334 6.278124999999999  C 14.980902777777779 5.384374999999999  14.425694444444446 4.5944444444444414  13.739583333333336 3.9083333333333314  L 12.954166666666666 3.2041666666666657  L 12.954166666666666 6.5625  L 11.329166666666667 6.5625  L 11.329166666666667 0.33333333333333215  L 17.558333333333334 0.33333333333333215  L 17.558333333333334 1.9583333333333321  L 14.010416666666668 1.9583333333333321  L 14.416666666666668 2.3374999999999986  C 15.5 3.348611111111108  16.3125 4.43194444444444  16.854166666666668 5.587499999999999  C 17.395833333333336 6.743055555555554  17.666666666666668 7.853472222222221  17.666666666666668 8.91875  C 17.666666666666668 10.832638888888887  17.106944444444448 12.556944444444444  15.9875 14.091666666666669  Z " fill-rule="nonzero" fill="#ffffff" stroke="none" transform="matrix(1 0 0 1 268 190 )" />
  </g>
</svg>