<?xml version="1.0" encoding="utf-8"?>
<svg version="1.1" xmlns:xlink="http://www.w3.org/1999/xlink" width="20px" height="20px" xmlns="http://www.w3.org/2000/svg">
  <g transform="matrix(1 0 0 1 -276 -189 )">
    <path d="M 6.25 6.25  L 6.25 13.75  L 13.75 13.75  L 13.75 6.25  L 6.25 6.25  Z M 13.900000000000002 19.2079  C 12.683333333333335 19.735966666666666  11.385550000000002 20  10.00665 20  C 8.627750000000002 20  7.33191666666667 19.7375  6.119150000000001 19.2125  C 4.906383333333335 18.6875  3.845833333333335 17.97083333333333  2.9375 17.0625  C 2.0291666666666677 16.154166666666665  1.3125 15.092991666666666  0.7875000000000001 13.878974999999997  C 0.2625000000000002 12.664975  0 11.367816666666666  0 9.987499999999999  C 0 8.607183333333332  0.2625000000000002 7.310025000000001  0.7875000000000001 6.096024999999999  C 1.3125 4.8820083333333315  2.0291666666666677 3.8249999999999993  2.9375 2.9250000000000007  C 3.845833333333335 2.0249999999999986  4.9070083333333345 1.3125  6.121025000000001 0.7874999999999979  C 7.335025 0.2624999999999993  8.632183333333334 0  10.012500000000003 0  C 11.392816666666668 0  12.689974999999997 0.2624999999999993  13.903975000000003 0.7874999999999979  C 15.117991666666668 1.3125  16.175 2.0249999999999986  17.075 2.9250000000000007  C 17.975 3.8249999999999993  18.6875 4.883333333333329  19.212500000000002 6.1  C 19.7375 7.316666666666665  20 8.614449999999998  20 9.99335  C 20 11.372249999999998  19.7375 12.668083333333332  19.212500000000002 13.880849999999999  C 18.6875 15.093616666666666  17.975 16.152633333333334  17.075 17.0579  C 16.175 17.963166666666666  15.11666666666667 18.679833333333335  13.900000000000002 19.2079  Z M 3.9875000000000007 16.0125  C 5.645833333333334 17.670833333333334  7.654166666666669 18.5  10.012500000000003 18.5  C 12.370833333333335 18.5  14.375 17.670833333333334  16.025000000000002 16.0125  C 17.675 14.354166666666664  18.5 12.345833333333331  18.5 9.987499999999999  C 18.5 7.629166666666665  17.67656666666667 5.625  16.029700000000002 3.974999999999998  C 14.382816666666667 2.3249999999999993  12.372916666666669 1.5  10 1.5  C 7.65 1.5  5.645833333333334 2.3234333333333304  3.9875000000000007 3.970299999999998  C 2.3291666666666675 5.617183333333333  1.5 7.627083333333331  1.5 10  C 1.5 12.349999999999998  2.3291666666666675 14.354166666666664  3.9875000000000007 16.0125  Z " fill-rule="nonzero" fill="#ffffff" stroke="none" transform="matrix(1 0 0 1 276 189 )" />
  </g>
</svg>