<?xml version="1.0" encoding="utf-8" ?>
<svg
  version="1.1"
  xmlns:xlink="http://www.w3.org/1999/xlink"
  width="29px"
  height="25px"
  xmlns="http://www.w3.org/2000/svg"
>
  <g transform="matrix(1 0 0 1 -184 -60 )">
    <path
      d="M 29 25  L 0 25  L 14.5 0  L 29 25  Z M 14.5 3.9473684210526314  L 3.4272727272727272 23  L 25.572727272727278 23  L 14.5 3.9473684210526314  Z M 13.929062500000002 20.87171052631579  C 14.119671590909094 21.05811403508772  14.355845833333333 21.15131578947368  14.637585227272728 21.15131578947368  C 14.919346590909093 21.15131578947368  15.153598484848485 21.056195175438592  15.34034090909091 20.865953947368425  C 15.527083333333335 20.675690789473684  15.620454545454548 20.4399451754386  15.620454545454548 20.158717105263158  C 15.620454545454548 19.877467105263154  15.525160984848487 19.64364035087719  15.334573863636365 19.457236842105267  C 15.143964772727276 19.270833333333332  14.907790530303034 19.17763157894737  14.626051136363637 19.17763157894737  C 14.344289772727274 19.17763157894737  14.110037878787882 19.272752192982455  13.923295454545455 19.462993421052634  C 13.73655303030303 19.65325657894737  13.64318181818182 19.889002192982456  13.64318181818182 20.170230263157894  C 13.64318181818182 20.451480263157894  13.738475378787877 20.68530701754386  13.929062500000002 20.87171052631579  Z M 13.64318181818182 10.131578947368421  L 13.64318181818182 17.5  L 15.620454545454548 17.5  L 15.620454545454548 10.131578947368421  L 13.64318181818182 10.131578947368421  Z "
      fill-rule="nonzero"
      fill="#dd6336"
      stroke="none"
      transform="matrix(1 0 0 1 184 60 )"
    />
  </g>
</svg>
